<svg xmlns="http://www.w3.org/2000/svg"  viewBox="0 0 48 48" width="48px" height="48px" baseProfile="basic"><path d="M42.444,10.385l-8.819-4.14C33.6,6.233,33.573,6.23,33.547,6.221c-0.012-0.005-0.021-0.014-0.033-0.019	c-0.029-0.011-0.059-0.009-0.088-0.019c-0.031-0.007-0.062-0.016-0.093-0.02c-0.854-0.248-1.759-0.01-2.339,0.648L18.014,19.748	l-7.478-5.093c-0.979-0.826-2.377-0.938-3.486-0.271l-3.159,1.949c-0.012,0.007-0.018,0.021-0.029,0.029C3.329,16.728,3,17.322,3,18	v16c0,0.678,0.329,1.272,0.861,1.637c0.012,0.008,0.017,0.021,0.029,0.029l3.169,1.956c0.479,0.288,1.016,0.429,1.548,0.429	c0.688,0,1.37-0.235,1.917-0.695l7.49-5.102l12.96,12.917c0.448,0.508,1.072,0.781,1.717,0.781c0.274,0,0.553-0.05,0.822-0.152	c0.021-0.008,0.036-0.023,0.057-0.032c0.018-0.007,0.037-0.004,0.055-0.012l8.728-4.102C43.936,41.095,45,39.582,45,37.89V14.11	C45,12.418,43.936,10.905,42.444,10.385z M25.688,26.001L33,21.043v9.915L25.688,26.001z"/><path fill="#fff" d="M9,19.13v9.74l-3.2,3.74C5.22,33.37,4,32.96,4,32V16c0-0.96,1.22-1.37,1.8-0.61L9,19.13z"/><path d="M5.025,34.008c-0.219,0-0.443-0.036-0.663-0.11C3.534,33.617,3,32.873,3,32V16c0-0.873,0.534-1.617,1.362-1.897	c0.828-0.279,1.704-0.012,2.232,0.681l3.165,3.696C9.915,18.661,10,18.892,10,19.13v9.74c0,0.238-0.085,0.469-0.24,0.65l-3.2,3.74	C6.197,33.737,5.629,34.008,5.025,34.008z M5.04,16.04L5,32l3-3.5v-9.001L5.04,16.04z"/><path fill="#fff" d="M4.416,32.815l3.159,1.95c0.733,0.44,1.664,0.365,2.318-0.185L34,16.938V6.353	c0-1.198-1.482-1.758-2.275-0.86L4.416,32.815z"/><path d="M8.619,36.054c-0.534,0-1.075-0.142-1.56-0.432l-3.169-1.956c-0.26-0.16-0.433-0.431-0.468-0.734s0.069-0.606,0.286-0.823	L31.018,4.786c0.596-0.68,1.591-0.927,2.496-0.584C34.417,4.543,35,5.388,35,6.353v10.586c0,0.319-0.152,0.619-0.409,0.807	L10.483,35.387C9.964,35.826,9.298,36.054,8.619,36.054z M6.017,32.628l2.084,1.286c0.354,0.213,0.82,0.176,1.148-0.099L33,16.432	V6.353c0-0.171-0.105-0.247-0.193-0.28c-0.089-0.033-0.218-0.047-0.332,0.083L6.017,32.628z"/><path fill="#fff" d="M4.416,15.185l3.159-1.95c0.733-0.44,1.664-0.365,2.318,0.185L34,31.063v10.585	c0,1.198-1.482,1.758-2.275,0.86L4.416,15.185z"/><path d="M32.691,43.951c-0.645,0-1.269-0.273-1.717-0.781L3.709,15.892c-0.217-0.217-0.321-0.52-0.286-0.823	s0.208-0.574,0.468-0.734l3.159-1.949c1.109-0.667,2.507-0.555,3.486,0.271l24.055,17.602C34.848,30.445,35,30.744,35,31.063v10.585	c0,0.965-0.583,1.81-1.486,2.15C33.244,43.901,32.966,43.951,32.691,43.951z M6.017,15.372l26.415,26.429	c0.158,0.176,0.289,0.163,0.375,0.128C32.895,41.896,33,41.819,33,41.648V31.571L9.302,14.227c-0.38-0.315-0.845-0.354-1.211-0.134	L6.017,15.372z"/><path fill="#fff" d="M44,12.11v23.78c0,1.27-0.79,2.4-1.98,2.82l-8.82,4.14L34,32c0,0,0-11.5,0-16	c0-5-0.8-10.85-0.8-10.85l8.82,4.14C43.21,9.71,44,10.84,44,12.11z"/><path d="M33.2,43.85c-0.214,0-0.427-0.068-0.604-0.202c-0.296-0.225-0.443-0.594-0.383-0.96C32.222,42.64,33,37.841,33,32V16	c0-5.851-0.778-10.64-0.786-10.687c-0.061-0.367,0.087-0.736,0.383-0.961c0.297-0.225,0.692-0.265,1.028-0.107l8.819,4.14	C43.936,8.905,45,10.418,45,12.11V35.89c0,1.692-1.064,3.205-2.647,3.764l-8.728,4.102C33.49,43.818,33.345,43.85,33.2,43.85z M34.442,6.837C34.681,8.804,35,12.153,35,16v16c0,3.846-0.319,7.195-0.558,9.162l7.152-3.357C42.473,37.49,43,36.735,43,35.89	V12.11c0-0.846-0.527-1.601-1.313-1.877L34.442,6.837z"/></svg>